<svg width="963" height="954" viewBox="0 0 963 954" fill="none" xmlns="http://www.w3.org/2000/svg">
<path d="M328 151.684L366.785 131.936L399 195.207C367.134 132.621 366.798 131.938 366.805 131.926C366.809 131.924 366.819 131.918 366.827 131.914C366.843 131.906 366.86 131.897 366.879 131.888C366.917 131.869 366.961 131.847 367.012 131.821C367.113 131.77 367.239 131.706 367.391 131.63C367.694 131.477 368.099 131.274 368.6 131.025C369.601 130.528 370.99 129.844 372.734 129.001C376.219 127.316 381.14 124.984 387.234 122.223C399.374 116.722 416.419 109.399 436.217 102.046C473.786 88.0916 529.09 71 581 71C674.902 71 749.636 102.965 791.828 173.052C803.288 192.088 816.382 212.909 822.552 240.092C827.945 263.853 827.5 290.917 827.5 320.732C827.5 367.364 812.051 412.519 799.01 443.13C803.253 446.682 807.589 450.443 811.946 454.395C828.351 469.272 846.902 488.493 861.792 510.998C876.336 532.982 891 563.559 891 599.68C891 629.114 891.905 662.59 880.327 694.853C868.455 727.935 845.893 754.304 820.594 782.201C751.244 858.672 660.081 881.752 582.12 882.981C553.117 883.439 524.096 875.442 500.975 867.155C476.71 858.459 452.871 847.179 432.552 836.56C412.046 825.843 393.959 815.183 381.038 807.238C374.544 803.245 369.269 799.885 365.551 797.478C363.69 796.273 362.212 795.304 361.161 794.608C360.636 794.261 360.216 793.981 359.907 793.775C359.753 793.672 359.626 793.587 359.527 793.521C359.478 793.489 359.436 793.46 359.401 793.437C359.384 793.425 359.368 793.415 359.354 793.405C359.348 793.401 359.338 793.394 359.335 793.392C359.334 793.376 359.85 792.593 399 734.505L359.318 793.381L328 772.272V151.684Z" stroke="#22C55E" stroke-width="142"/>
<path d="M0 112H229V176.815H47.777L0 112Z" fill="#22C55E"/>
<path d="M0 202.741H229V267.556H47.777L0 202.741Z" fill="#22C55E"/>
<path d="M0 293.481H229V358.296H47.777L0 293.481Z" fill="#22C55E"/>
<path d="M0 384.222H229V449.037H47.777L0 384.222Z" fill="#22C55E"/>
<path d="M0 474.963H229V539.778H47.777L0 474.963Z" fill="#22C55E"/>
<path d="M0 565.704H229V630.518H47.777L0 565.704Z" fill="#22C55E"/>
<path d="M0 656.444H229V721.259H47.777L0 656.444Z" fill="#22C55E"/>
<path d="M0 747.185H229V812H47.777L0 747.185Z" fill="#22C55E"/>
<path d="M521.301 328.192C521.301 328.192 571.367 300 608.497 300C645.626 300 668.144 313.412 680.361 335.855C692.578 358.299 692.578 358.983 692.578 394.702C692.578 430.42 669.581 471.065 669.581 471.065C669.581 471.065 723 506.784 723 542.502C723 578.221 723 583.558 698.087 613.939C673.174 644.32 639.877 654.447 608.497 654.995C577.116 655.542 521.301 613.939 521.301 613.939V328.192Z" fill="#22C55E"/>
<path d="M550.047 391.22C550.047 391.22 576.685 374.179 596.441 374.179C616.196 374.179 628.177 382.286 634.677 395.853C641.177 409.42 641.177 409.833 641.177 431.424C641.177 453.015 628.942 477.584 628.942 477.584C628.942 477.584 657.364 499.175 657.364 520.766C657.364 542.357 657.364 545.583 644.109 563.948C630.854 582.313 613.137 588.435 596.441 588.765C579.744 589.096 550.047 563.948 550.047 563.948V391.22Z" fill="#22C55E"/>
<path d="M448 329.142H514.594V355.634H461.894L448 329.142Z" fill="#22C55E"/>
<path d="M448 366.231H514.594V392.724H461.894L448 366.231Z" fill="#22C55E"/>
<path d="M448 403.321H514.594V429.813H461.894L448 403.321Z" fill="#22C55E"/>
<path d="M448 440.41H514.594V466.903H461.894L448 440.41Z" fill="#22C55E"/>
<path d="M448 477.5H514.594V503.993H461.894L448 477.5Z" fill="#22C55E"/>
<path d="M448 514.59H514.594V541.082H461.894L448 514.59Z" fill="#22C55E"/>
<path d="M448 551.679H514.594V578.172H461.894L448 551.679Z" fill="#22C55E"/>
<path d="M448 588.769H514.594V615.261H461.894L448 588.769Z" fill="#22C55E"/>
</svg>
